<svg width="64" height="65" viewBox="0 0 64 65" fill="none" xmlns="http://www.w3.org/2000/svg">
<g filter="url(#filter0_dd_766_14828)">
<path fill-rule="evenodd" clip-rule="evenodd" d="M14.0312 1H49.9688C56.6134 1 62 6.38657 62 13.0312V48.9688C62 55.6134 56.6134 61 49.9688 61H14.0312C7.38657 61 2 55.6134 2 48.9688V13.0312C2 6.38657 7.38657 1 14.0312 1Z" fill="white"/>
</g>
<path fill-rule="evenodd" clip-rule="evenodd" d="M42.0002 61H49.9687C55.0105 61 59.3279 57.8988 61.1175 53.5H42.0002V61Z" fill="#FFD166"/>
<path fill-rule="evenodd" clip-rule="evenodd" d="M14.0312 61H22V53.5H2.88243C4.67208 57.8988 8.98949 61 14.0312 61Z" fill="#2BB793"/>
<rect x="21.9998" y="53.5" width="20" height="7.5" fill="#83BDE4"/>
<path fill-rule="evenodd" clip-rule="evenodd" d="M30.8542 26.7917C30.1248 25.7084 29.0451 25.1667 27.6151 25.1667C27.0373 25.1667 26.4631 25.2895 25.8926 25.5351C25.322 25.7806 24.8056 26.1779 24.3434 26.7267L24.1701 25.6001H20.3567V42.0884L24.6467 41.6551V36.4551C25.3401 37.2206 26.2356 37.6034 27.3334 37.6034C28.2434 37.6034 29.0487 37.3326 29.7492 36.7909C30.4498 36.2492 30.9915 35.5054 31.3742 34.5592C31.757 33.6131 31.9484 32.5406 31.9484 31.3417C31.9484 29.3917 31.5837 27.8751 30.8542 26.7917ZM18.4284 33.4218C18.4284 33.8262 18.4789 34.1259 18.58 34.3209C18.6812 34.5159 18.8617 34.664 19.1217 34.7651L18.255 37.5168C17.475 37.459 16.8395 37.3109 16.3484 37.0726C15.8573 36.8343 15.4528 36.4479 15.135 35.9134C14.3839 37.0401 13.2212 37.6034 11.6467 37.6034C10.5056 37.6034 9.58477 37.2604 8.88421 36.5743C8.18365 35.8882 7.83337 35.0035 7.83337 33.9201C7.83337 32.6345 8.31004 31.6523 9.26337 30.9734C10.2167 30.2946 11.6034 29.9551 13.4234 29.9551H14.2467V29.6734C14.2467 29.0957 14.1312 28.7057 13.9 28.5034C13.6689 28.3012 13.2284 28.2001 12.5784 28.2001C12.2317 28.2001 11.7875 28.2543 11.2459 28.3626C10.7042 28.4709 10.1517 28.619 9.58837 28.8068L8.65671 26.0768C9.36449 25.7879 10.1336 25.564 10.9642 25.4051C11.7948 25.2462 12.5495 25.1668 13.2284 25.1668C15.0484 25.1668 16.37 25.5171 17.1934 26.2176C18.0167 26.9182 18.4284 27.9907 18.4284 29.4351V33.4218ZM12.9683 34.5916C13.2283 34.5916 13.4703 34.5266 13.6942 34.3966C13.9181 34.2666 14.1022 34.1005 14.2467 33.8983V32.1866H13.7917C13.185 32.1866 12.7372 32.295 12.4483 32.5116C12.1594 32.7283 12.015 33.0605 12.015 33.5083C12.015 33.8405 12.1017 34.1041 12.275 34.2991C12.4483 34.4941 12.6794 34.5916 12.9683 34.5916ZM25.925 34.5485C27.0083 34.5485 27.55 33.5013 27.55 31.4068C27.55 30.5257 27.4922 29.854 27.3767 29.3918C27.2611 28.9296 27.1058 28.6226 26.9108 28.471C26.7158 28.3193 26.4667 28.2435 26.1633 28.2435C25.5567 28.2435 25.0511 28.6046 24.6467 29.3268V33.7468C24.8344 34.0357 25.0294 34.2415 25.2317 34.3643C25.4339 34.4871 25.665 34.5485 25.925 34.5485ZM43.1825 26.0767C42.6264 25.4701 41.8645 25.1667 40.8967 25.1667C40.2034 25.1667 39.5786 25.2967 39.0225 25.5567C38.4664 25.8167 37.9211 26.2284 37.3867 26.7917L37.0834 25.6001H33.335V37.1701H37.625V29.4351C38.1161 28.6695 38.6 28.2867 39.0767 28.2867C39.2934 28.2867 39.4559 28.3662 39.5642 28.5251C39.6725 28.684 39.7267 28.9801 39.7267 29.4134V37.1701H44.0167V28.6334C44.0167 27.5356 43.7386 26.6834 43.1825 26.0767ZM55.7384 33.4217C55.7384 33.8262 55.7889 34.1259 55.89 34.3209C55.9911 34.5159 56.1717 34.664 56.4317 34.7651L55.565 37.5167C54.785 37.459 54.1495 37.3109 53.6584 37.0726C53.1672 36.8342 52.7628 36.4479 52.445 35.9134C51.6939 37.0401 50.5311 37.6034 48.9567 37.6034C47.8156 37.6034 46.8947 37.2604 46.1942 36.5742C45.4936 35.8881 45.1434 35.0034 45.1434 33.9201C45.1434 32.6345 45.62 31.6523 46.5734 30.9734C47.5267 30.2945 48.9133 29.9551 50.7334 29.9551H51.5567V29.6734C51.5567 29.0956 51.4411 28.7056 51.21 28.5034C50.9789 28.3012 50.5384 28.2001 49.8884 28.2001C49.5417 28.2001 49.0975 28.2542 48.5559 28.3626C48.0142 28.4709 47.4617 28.619 46.8984 28.8067L45.9667 26.0767C46.6745 25.7879 47.4436 25.564 48.2742 25.4051C49.1047 25.2462 49.8595 25.1667 50.5384 25.1667C52.3584 25.1667 53.68 25.517 54.5034 26.2176C55.3267 26.9181 55.7384 27.9906 55.7384 29.4351V33.4217ZM51.0042 34.3966C50.7803 34.5266 50.5384 34.5916 50.2784 34.5916C49.9895 34.5916 49.7584 34.4941 49.5851 34.2991C49.4117 34.1041 49.3251 33.8405 49.3251 33.5083C49.3251 33.0605 49.4695 32.7283 49.7584 32.5116C50.0473 32.295 50.4951 32.1866 51.1017 32.1866H51.5567V33.8983C51.4123 34.1005 51.2281 34.2666 51.0042 34.3966Z" fill="#4D3951"/>
<defs>
<filter id="filter0_dd_766_14828" x="0" y="0" width="64" height="65" filterUnits="userSpaceOnUse" color-interpolation-filters="sRGB">
<feFlood flood-opacity="0" result="BackgroundImageFix"/>
<feColorMatrix in="SourceAlpha" type="matrix" values="0 0 0 0 0 0 0 0 0 0 0 0 0 0 0 0 0 0 127 0" result="hardAlpha"/>
<feOffset dy="2"/>
<feGaussianBlur stdDeviation="1"/>
<feColorMatrix type="matrix" values="0 0 0 0 0 0 0 0 0 0 0 0 0 0 0 0 0 0 0.08 0"/>
<feBlend mode="normal" in2="BackgroundImageFix" result="effect1_dropShadow_766_14828"/>
<feColorMatrix in="SourceAlpha" type="matrix" values="0 0 0 0 0 0 0 0 0 0 0 0 0 0 0 0 0 0 127 0" result="hardAlpha"/>
<feOffset/>
<feGaussianBlur stdDeviation="0.5"/>
<feColorMatrix type="matrix" values="0 0 0 0 0 0 0 0 0 0 0 0 0 0 0 0 0 0 0.16 0"/>
<feBlend mode="normal" in2="effect1_dropShadow_766_14828" result="effect2_dropShadow_766_14828"/>
<feBlend mode="normal" in="SourceGraphic" in2="effect2_dropShadow_766_14828" result="shape"/>
</filter>
</defs>
</svg>
