<svg width="20" height="18" viewBox="0 0 20 18" fill="none" xmlns="http://www.w3.org/2000/svg">
<path d="M10 4.13889V2.19444C10 1.125 9.15625 0.25 8.125 0.25H2.5C1.46875 0.25 0.625 1.125 0.625 2.19444V15.8056C0.625 16.875 1.46875 17.75 2.5 17.75H17.5C18.5312 17.75 19.375 16.875 19.375 15.8056V6.08333C19.375 5.01389 18.5312 4.13889 17.5 4.13889H10ZM8.125 15.8056H2.5V13.8611H8.125V15.8056ZM8.125 11.9167H2.5V9.97222H8.125V11.9167ZM8.125 8.02778H2.5V6.08333H8.125V8.02778ZM8.125 4.13889H2.5V2.19444H8.125V4.13889ZM17.5 15.8056H10V6.08333H17.5V15.8056ZM15.625 8.02778H11.875V9.97222H15.625V8.02778ZM15.625 11.9167H11.875V13.8611H15.625V11.9167Z" fill="#5E6C84"/>
</svg>
